<?xml version="1.0" encoding="UTF-8" standalone="no"?> <svg xmlns="http://www.w3.org/2000/svg"  viewBox="0 0 24 24"><defs><style>.cls-1{fill:none;stroke:#000;stroke-linecap:round;stroke-linejoin:round;stroke-width:2px;}</style></defs><title>42.graph</title><g id="_42.graph" data-name="42.graph"><path class="cls-1" d="M1,1V21a1.959,1.959,0,0,0,2,2H23"/><path class="cls-1" d="M5,23V13a1,1,0,0,1,1-1H9a1,1,0,0,1,1,1V23"/><path class="cls-1" d="M10,13V3a1,1,0,0,1,1-1h3a1,1,0,0,1,1,1V13"/><path class="cls-1" d="M15,23V9a1,1,0,0,1,1-1h3a1,1,0,0,1,1,1V23"/></g></svg>